<?xml version="1.0" standalone="no"?>
<!DOCTYPE svg PUBLIC "-//W3C//DTD SVG 20010904//EN"
 "http://www.w3.org/TR/2001/REC-SVG-20010904/DTD/svg10.dtd">
<svg version="1.0" xmlns="http://www.w3.org/2000/svg"
 width="459.000000pt" height="459.000000pt" viewBox="0 0 459.000000 459.000000"
 preserveAspectRatio="xMidYMid meet">
<metadata>
Created by potrace 1.14, written by Peter Selinger 2001-2017
</metadata>
<g transform="translate(0.000000,459.000000) scale(0.100000,-0.100000)"
fill="#000000" stroke="none">
<path d="M3909 3751 c-28 -29 -32 -40 -31 -91 1 -14 2 -50 3 -81 1 -65 -14
-103 -54 -133 -23 -17 -43 -21 -110 -21 -81 0 -105 3 -262 30 -44 7 -107 16
-140 20 -33 4 -71 9 -85 12 -49 9 -316 12 -365 3 -87 -16 -105 -20 -153 -36
-208 -69 -378 -238 -478 -474 -99 -236 -94 -564 11 -676 54 -57 129 -37 155
41 17 52 5 100 -47 182 -63 101 -71 130 -67 234 6 150 59 276 158 373 74 73
81 78 135 105 87 45 217 72 366 76 136 4 199 -1 191 -14 -2 -3 -7 -23 -10 -43
-3 -21 -10 -57 -15 -80 -6 -24 -12 -59 -16 -78 -11 -66 -46 -255 -56 -300 -5
-25 -14 -70 -19 -100 -5 -30 -19 -104 -30 -165 -12 -60 -24 -123 -26 -140 -3
-16 -30 -152 -59 -302 -64 -320 -109 -515 -131 -563 -42 -90 -105 -136 -215
-159 l-57 -12 -9 -50 -10 -50 26 6 c139 30 339 30 500 0 90 -17 179 -17 238 0
35 10 67 23 72 29 5 6 12 34 16 63 l7 52 -54 -21 c-32 -13 -82 -22 -128 -24
-74 -2 -183 13 -176 25 2 3 7 24 10 46 3 22 8 51 11 65 2 14 6 36 9 50 4 23
21 117 30 165 2 11 7 40 11 65 4 25 9 52 11 60 6 28 43 215 48 245 3 17 23
120 45 230 22 110 54 272 71 360 18 88 34 169 36 180 2 11 8 45 14 75 11 62 9
50 46 230 l27 135 171 0 c182 0 223 4 301 31 68 22 81 30 132 77 59 54 94 126
101 203 5 73 -10 126 -45 154 -36 28 -69 25 -104 -9z"/>
<path d="M1695 3483 c-230 -54 -409 -233 -493 -493 -29 -88 -32 -111 -32 -210
0 -92 1 -106 25 -187 30 -102 64 -160 214 -362 199 -268 243 -362 243 -525 1
-163 -59 -302 -182 -427 -47 -47 -96 -85 -130 -102 -157 -75 -305 -56 -387 50
-38 49 -60 108 -77 206 -8 49 -36 131 -49 148 -68 87 -180 15 -190 -122 -8
-104 36 -204 132 -299 105 -103 212 -142 376 -136 289 10 559 211 674 501 94
238 77 459 -51 679 -34 58 -145 219 -180 261 -152 181 -211 310 -207 447 5
144 52 258 149 356 64 66 124 98 199 108 126 17 214 -53 247 -195 13 -54 12
-312 -2 -373 -5 -27 -4 -28 35 -28 40 0 41 1 42 35 1 19 2 38 3 43 1 4 6 43
10 87 4 44 10 94 12 110 2 17 6 55 10 85 4 30 17 107 30 170 13 63 22 115 21
117 -2 1 -45 12 -97 23 -52 12 -104 24 -115 27 -27 7 -205 12 -230 6z"/>
</g>
</svg>
